# xmcd
#
# Track frame offsets:
#	150
#	10993
#	22426
#	34184
#	47894
#	59495
#	71681
#	85076
#	97653
#	108636
#	123200
#	138311
#	153289
#	168314
#	181117
#
# Disc length: 2654 seconds
#
# Revision: 0
# Processed by: cddbd v1.5.2PL0 Copyright (c) Steve Scherf et al.
# Submitted via: EasyCDDAExtractor 2010.4.0.0
#
DISCID=c40a5c0f
DTITLE=Spencer Bohren - The Blues According to Hank Williams
DYEAR=2011
DGENRE=Blues
TTITLE0=Lonesome Whistle
TTITLE1=I'm Gonna Sing
TTITLE2=Honky-Tonk Blues
TTITLE3=Weary Blues
TTITLE4=Mind Your Own Business
TTITLE5=Crazy Heart
TTITLE6=I Can't Help It
TTITLE7=My Sweet Love Ain't Around
TTITLE8=Moanin' The Blues
TTITLE9=Cold Cold Heart
TTITLE10=I'm So Lonesome I Could Cry
TTITLE11=Live And Love
TTITLE12=Lovesick Blues
TTITLE13=I Saw The Light
TTITLE14=Ramblin' Man
EXTD=
EXTT0=
EXTT1=
EXTT2=
EXTT3=
EXTT4=
EXTT5=
EXTT6=
EXTT7=
EXTT8=
EXTT9=
EXTT10=
EXTT11=
EXTT12=
EXTT13=
EXTT14=
PLAYORDER=
